<?xml version="1.0" encoding="utf-8"?>
<!DOCTYPE svg
  PUBLIC '-//W3C//DTD SVG 1.0//EN'
  'http://www.w3.org/TR/2001/REC-SVG-20010904/DTD/svg10.dtd'>
<svg width="540" height="260" preserveAspectRatio="xMinYMin meet" viewBox="0 0 540 260" xmlns="http://www.w3.org/2000/svg" version="1.0" fill-rule="evenodd" xmlns:xlink="http://www.w3.org/1999/xlink">
	<title>...</title>
	<desc>...</desc>
	<clipPath id="clip">
		<rect x="0" y="0" width="540" height="260"/>
	</clipPath>
	<g id="group" transform="scale(1,-1) translate(0,-260)" style="clip-path: url(#clip)">
		<g transform="">
			<text x="18" y="240" style="font-family: Helvetica-Bold; font-size: 14px;fill: rgb(7%,13%,21%); stroke:none;" transform="translate(0,480) scale(1,-1)">APHFS: six scientific decisions</text>
			<text x="18" y="224" style="font-family: Helvetica; font-size: 8.5px;fill: rgb(29%,33%,41%); stroke:none;" transform="translate(0,448) scale(1,-1)">Each output becomes a premise for the next step; failure narrows the claim.</text>
			<rect x="12" y="61" width="75" height="138" rx="6" ry="6" style="stroke: rgb(19%,35%,49%); stroke-linecap: butt; stroke-width: 1.1; fill: rgb(91%,94%,96%); fill-rule: evenodd;"/>
			<rect x="39.5" y="169" width="20.0" height="20" rx="4" ry="4" style="stroke: rgb(7%,13%,21%); stroke-linecap: butt; stroke-width: 1; fill: rgb(7%,13%,21%); fill-rule: evenodd;"/>
			<text x="47.0536" y="175" style="font-family: Helvetica-Bold; font-size: 8.8px;fill: rgb(100%,100%,100%); stroke:none;" transform="translate(0,350) scale(1,-1)">1</text>
			<text x="37.1232" y="159.5" style="font-family: Helvetica-Bold; font-size: 8.1px;fill: rgb(7%,13%,21%); stroke:none;" transform="translate(0,319) scale(1,-1)">Define</text>
			<text x="38.6946" y="150.5" style="font-family: Helvetica; font-size: 8.1px;fill: rgb(7%,13%,21%); stroke:none;" transform="translate(0,301) scale(1,-1)">scope</text>
			<text x="29.1702" y="128" style="font-family: Helvetica; font-size: 6.2px;fill: rgb(29%,33%,41%); stroke:none;" transform="translate(0,256) scale(1,-1)">declare search</text>
			<text x="38.19475" y="112" style="font-family: Helvetica-Bold; font-size: 5.5px;fill: rgb(29%,33%,41%); stroke:none;" transform="translate(0,224) scale(1,-1)">OUTPUT</text>
			<rect x="17" y="71" width="65" height="34" rx="4" ry="4" style="stroke: rgb(81%,84%,89%); stroke-linecap: butt; stroke-width: 0.8; fill: rgb(100%,100%,100%); fill-rule: evenodd;"/>
			<text x="34.329" y="89.5" style="font-family: Helvetica-Bold; font-size: 6.5px;fill: rgb(19%,35%,49%); stroke:none;" transform="translate(0,179) scale(1,-1)">candidate</text>
			<text x="42.0965" y="82.1" style="font-family: Helvetica; font-size: 6.5px;fill: rgb(19%,35%,49%); stroke:none;" transform="translate(0,164) scale(1,-1)">class</text>
			<rect x="100" y="61" width="75" height="138" rx="6" ry="6" style="stroke: rgb(19%,35%,49%); stroke-linecap: butt; stroke-width: 1.1; fill: rgb(91%,94%,96%); fill-rule: evenodd;"/>
			<rect x="127.5" y="169" width="20.0" height="20" rx="4" ry="4" style="stroke: rgb(7%,13%,21%); stroke-linecap: butt; stroke-width: 1; fill: rgb(7%,13%,21%); fill-rule: evenodd;"/>
			<text x="135.0536" y="175" style="font-family: Helvetica-Bold; font-size: 8.8px;fill: rgb(100%,100%,100%); stroke:none;" transform="translate(0,350) scale(1,-1)">2</text>
			<text x="119.04820000000001" y="159.5" style="font-family: Helvetica-Bold; font-size: 8.1px;fill: rgb(7%,13%,21%); stroke:none;" transform="translate(0,319) scale(1,-1)">Complete</text>
			<text x="117.9142" y="150.5" style="font-family: Helvetica; font-size: 8.1px;fill: rgb(7%,13%,21%); stroke:none;" transform="translate(0,301) scale(1,-1)">accounting</text>
			<text x="124.7528" y="128" style="font-family: Helvetica; font-size: 6.2px;fill: rgb(29%,33%,41%); stroke:none;" transform="translate(0,256) scale(1,-1)">record all</text>
			<text x="126.19475" y="112" style="font-family: Helvetica-Bold; font-size: 5.5px;fill: rgb(29%,33%,41%); stroke:none;" transform="translate(0,224) scale(1,-1)">OUTPUT</text>
			<rect x="105" y="71" width="65" height="34" rx="4" ry="4" style="stroke: rgb(81%,84%,89%); stroke-linecap: butt; stroke-width: 0.8; fill: rgb(100%,100%,100%); fill-rule: evenodd;"/>
			<text x="124.8575" y="89.5" style="font-family: Helvetica-Bold; font-size: 6.5px;fill: rgb(19%,35%,49%); stroke:none;" transform="translate(0,179) scale(1,-1)">terminal</text>
			<text x="128.46825" y="82.1" style="font-family: Helvetica; font-size: 6.5px;fill: rgb(19%,35%,49%); stroke:none;" transform="translate(0,164) scale(1,-1)">ledger</text>
			<rect x="188" y="61" width="75" height="138" rx="6" ry="6" style="stroke: rgb(19%,35%,49%); stroke-linecap: butt; stroke-width: 1.1; fill: rgb(91%,94%,96%); fill-rule: evenodd;"/>
			<rect x="215.5" y="169" width="20.0" height="20" rx="4" ry="4" style="stroke: rgb(7%,13%,21%); stroke-linecap: butt; stroke-width: 1; fill: rgb(7%,13%,21%); fill-rule: evenodd;"/>
			<text x="223.0536" y="175" style="font-family: Helvetica-Bold; font-size: 8.8px;fill: rgb(100%,100%,100%); stroke:none;" transform="translate(0,350) scale(1,-1)">3</text>
			<text x="211.0982" y="159.5" style="font-family: Helvetica-Bold; font-size: 8.1px;fill: rgb(7%,13%,21%); stroke:none;" transform="translate(0,319) scale(1,-1)">Identify</text>
			<text x="203.8892" y="150.5" style="font-family: Helvetica; font-size: 8.1px;fill: rgb(7%,13%,21%); stroke:none;" transform="translate(0,301) scale(1,-1)">equivalence</text>
			<text x="201.8966" y="128" style="font-family: Helvetica; font-size: 6.2px;fill: rgb(29%,33%,41%); stroke:none;" transform="translate(0,256) scale(1,-1)">match signatures</text>
			<text x="214.19475" y="112" style="font-family: Helvetica-Bold; font-size: 5.5px;fill: rgb(29%,33%,41%); stroke:none;" transform="translate(0,224) scale(1,-1)">OUTPUT</text>
			<rect x="193" y="71" width="65" height="34" rx="4" ry="4" style="stroke: rgb(81%,84%,89%); stroke-linecap: butt; stroke-width: 0.8; fill: rgb(100%,100%,100%); fill-rule: evenodd;"/>
			<text x="210.87175" y="89.5" style="font-family: Helvetica-Bold; font-size: 6.5px;fill: rgb(19%,35%,49%); stroke:none;" transform="translate(0,179) scale(1,-1)">signature</text>
			<text x="214.6645" y="82.1" style="font-family: Helvetica; font-size: 6.5px;fill: rgb(19%,35%,49%); stroke:none;" transform="translate(0,164) scale(1,-1)">classes</text>
			<rect x="276" y="61" width="75" height="138" rx="6" ry="6" style="stroke: rgb(19%,35%,49%); stroke-linecap: butt; stroke-width: 1.1; fill: rgb(91%,94%,96%); fill-rule: evenodd;"/>
			<rect x="303.5" y="169" width="20.0" height="20" rx="4" ry="4" style="stroke: rgb(7%,13%,21%); stroke-linecap: butt; stroke-width: 1; fill: rgb(7%,13%,21%); fill-rule: evenodd;"/>
			<text x="311.0536" y="175" style="font-family: Helvetica-Bold; font-size: 8.8px;fill: rgb(100%,100%,100%); stroke:none;" transform="translate(0,350) scale(1,-1)">4</text>
			<text x="293.9142" y="159.5" style="font-family: Helvetica-Bold; font-size: 8.1px;fill: rgb(7%,13%,21%); stroke:none;" transform="translate(0,319) scale(1,-1)">Test class</text>
			<text x="295.9392" y="150.5" style="font-family: Helvetica; font-size: 8.1px;fill: rgb(7%,13%,21%); stroke:none;" transform="translate(0,301) scale(1,-1)">adequacy</text>
			<text x="289.8935" y="128" style="font-family: Helvetica; font-size: 6.2px;fill: rgb(29%,33%,41%); stroke:none;" transform="translate(0,256) scale(1,-1)">decide or abstain</text>
			<text x="302.19475" y="112" style="font-family: Helvetica-Bold; font-size: 5.5px;fill: rgb(29%,33%,41%); stroke:none;" transform="translate(0,224) scale(1,-1)">OUTPUT</text>
			<rect x="281" y="71" width="65" height="34" rx="4" ry="4" style="stroke: rgb(81%,84%,89%); stroke-linecap: butt; stroke-width: 0.8; fill: rgb(100%,100%,100%); fill-rule: evenodd;"/>
			<text x="282.976" y="89.5" style="font-family: Helvetica-Bold; font-size: 6.5px;fill: rgb(19%,35%,49%); stroke:none;" transform="translate(0,179) scale(1,-1)">retain / inadequate /</text>
			<text x="293.8115" y="82.1" style="font-family: Helvetica; font-size: 6.5px;fill: rgb(19%,35%,49%); stroke:none;" transform="translate(0,164) scale(1,-1)">indeterminate</text>
			<rect x="364" y="61" width="75" height="138" rx="6" ry="6" style="stroke: rgb(18%,41%,30%); stroke-linecap: butt; stroke-width: 1.1; fill: rgb(92%,96%,94%); fill-rule: evenodd;"/>
			<rect x="391.5" y="169" width="20.0" height="20" rx="4" ry="4" style="stroke: rgb(7%,13%,21%); stroke-linecap: butt; stroke-width: 1; fill: rgb(7%,13%,21%); fill-rule: evenodd;"/>
			<text x="399.0536" y="175" style="font-family: Helvetica-Bold; font-size: 8.8px;fill: rgb(100%,100%,100%); stroke:none;" transform="translate(0,350) scale(1,-1)">5</text>
			<text x="378.98605" y="159.5" style="font-family: Helvetica-Bold; font-size: 8.1px;fill: rgb(7%,13%,21%); stroke:none;" transform="translate(0,319) scale(1,-1)">Verify scale</text>
			<text x="382.141" y="150.5" style="font-family: Helvetica; font-size: 8.1px;fill: rgb(7%,13%,21%); stroke:none;" transform="translate(0,301) scale(1,-1)">and fidelity</text>
			<text x="379.4466" y="128" style="font-family: Helvetica; font-size: 6.2px;fill: rgb(29%,33%,41%); stroke:none;" transform="translate(0,256) scale(1,-1)">test refinements</text>
			<text x="390.19475" y="112" style="font-family: Helvetica-Bold; font-size: 5.5px;fill: rgb(29%,33%,41%); stroke:none;" transform="translate(0,224) scale(1,-1)">OUTPUT</text>
			<rect x="369" y="71" width="65" height="34" rx="4" ry="4" style="stroke: rgb(81%,84%,89%); stroke-linecap: butt; stroke-width: 0.8; fill: rgb(100%,100%,100%); fill-rule: evenodd;"/>
			<text x="381.5385" y="89.5" style="font-family: Helvetica-Bold; font-size: 6.5px;fill: rgb(18%,41%,30%); stroke:none;" transform="translate(0,179) scale(1,-1)">observable +</text>
			<text x="380.1865" y="82.1" style="font-family: Helvetica; font-size: 6.5px;fill: rgb(18%,41%,30%); stroke:none;" transform="translate(0,164) scale(1,-1)">decision check</text>
			<rect x="452" y="61" width="75" height="138" rx="6" ry="6" style="stroke: rgb(18%,41%,30%); stroke-linecap: butt; stroke-width: 1.1; fill: rgb(92%,96%,94%); fill-rule: evenodd;"/>
			<rect x="479.5" y="169" width="20.0" height="20" rx="4" ry="4" style="stroke: rgb(7%,13%,21%); stroke-linecap: butt; stroke-width: 1; fill: rgb(7%,13%,21%); fill-rule: evenodd;"/>
			<text x="487.0536" y="175" style="font-family: Helvetica-Bold; font-size: 8.8px;fill: rgb(100%,100%,100%); stroke:none;" transform="translate(0,350) scale(1,-1)">6</text>
			<text x="466.76735" y="159.5" style="font-family: Helvetica-Bold; font-size: 8.1px;fill: rgb(7%,13%,21%); stroke:none;" transform="translate(0,319) scale(1,-1)">Evaluate on</text>
			<text x="465.86015" y="150.5" style="font-family: Helvetica; font-size: 8.1px;fill: rgb(7%,13%,21%); stroke:none;" transform="translate(0,301) scale(1,-1)">held-out data</text>
			<text x="462.964" y="128" style="font-family: Helvetica; font-size: 6.2px;fill: rgb(29%,33%,41%); stroke:none;" transform="translate(0,256) scale(1,-1)">judge fixed pipeline</text>
			<text x="478.19475" y="112" style="font-family: Helvetica-Bold; font-size: 5.5px;fill: rgb(29%,33%,41%); stroke:none;" transform="translate(0,224) scale(1,-1)">OUTPUT</text>
			<rect x="457" y="71" width="65" height="34" rx="4" ry="4" style="stroke: rgb(81%,84%,89%); stroke-linecap: butt; stroke-width: 0.8; fill: rgb(100%,100%,100%); fill-rule: evenodd;"/>
			<text x="475.41125" y="89.5" style="font-family: Helvetica-Bold; font-size: 6.5px;fill: rgb(18%,41%,30%); stroke:none;" transform="translate(0,179) scale(1,-1)">scientific</text>
			<text x="481.55375" y="82.1" style="font-family: Helvetica; font-size: 6.5px;fill: rgb(18%,41%,30%); stroke:none;" transform="translate(0,164) scale(1,-1)">result</text>
			<path d="M 89,130 L 98,130 Z" style="stroke: rgb(7%,13%,21%); stroke-linecap: butt; stroke-width: 1.4;"/>
			<path d="M 98 130 L 91 134.5 L 91 125.5 L 98 130 " style="stroke: rgb(7%,13%,21%); stroke-linecap: butt; stroke-width: 1; fill: none; fill-rule: evenodd;"/>
			<path d="M 177,130 L 186,130 Z" style="stroke: rgb(7%,13%,21%); stroke-linecap: butt; stroke-width: 1.4;"/>
			<path d="M 186 130 L 179 134.5 L 179 125.5 L 186 130 " style="stroke: rgb(7%,13%,21%); stroke-linecap: butt; stroke-width: 1; fill: none; fill-rule: evenodd;"/>
			<path d="M 265,130 L 274,130 Z" style="stroke: rgb(7%,13%,21%); stroke-linecap: butt; stroke-width: 1.4;"/>
			<path d="M 274 130 L 267 134.5 L 267 125.5 L 274 130 " style="stroke: rgb(7%,13%,21%); stroke-linecap: butt; stroke-width: 1; fill: none; fill-rule: evenodd;"/>
			<path d="M 353,130 L 362,130 Z" style="stroke: rgb(7%,13%,21%); stroke-linecap: butt; stroke-width: 1.4;"/>
			<path d="M 362 130 L 355 134.5 L 355 125.5 L 362 130 " style="stroke: rgb(7%,13%,21%); stroke-linecap: butt; stroke-width: 1; fill: none; fill-rule: evenodd;"/>
			<path d="M 441,130 L 450,130 Z" style="stroke: rgb(7%,13%,21%); stroke-linecap: butt; stroke-width: 1.4;"/>
			<path d="M 450 130 L 443 134.5 L 443 125.5 L 450 130 " style="stroke: rgb(7%,13%,21%); stroke-linecap: butt; stroke-width: 1; fill: none; fill-rule: evenodd;"/>
			<rect x="18" y="12" width="504" height="31" rx="5" ry="5" style="stroke: rgb(60%,38%,0%); stroke-linecap: butt; stroke-width: 0.9; fill: rgb(100%,96%,86%); fill-rule: evenodd;"/>
			<text x="123.27374999999998" y="25" style="font-family: Helvetica-Bold; font-size: 7.5px;fill: rgb(60%,38%,0%); stroke:none;" transform="translate(0,50) scale(1,-1)">Evidence can retain, preserve ambiguity, reject the class, or remain indeterminate.</text>
		</g>
	</g>
</svg>
