<?xml version="1.0" encoding="utf-8"?>
<!DOCTYPE svg
  PUBLIC '-//W3C//DTD SVG 1.0//EN'
  'http://www.w3.org/TR/2001/REC-SVG-20010904/DTD/svg10.dtd'>
<svg width="540" height="500" preserveAspectRatio="xMinYMin meet" viewBox="0 0 540 500" xmlns="http://www.w3.org/2000/svg" version="1.0" fill-rule="evenodd" xmlns:xlink="http://www.w3.org/1999/xlink">
	<title>...</title>
	<desc>...</desc>
	<clipPath id="clip">
		<rect x="0" y="0" width="540" height="500"/>
	</clipPath>
	<g id="group" transform="scale(1,-1) translate(0,-500)" style="clip-path: url(#clip)">
		<g transform="">
			<text x="18" y="480" style="font-family: Helvetica-Bold; font-size: 14px;fill: rgb(7%,13%,21%); stroke:none;" transform="translate(0,960) scale(1,-1)">From imagination through executable mathematics to evidence</text>
			<text x="18" y="464" style="font-family: Helvetica; font-size: 8.5px;fill: rgb(29%,33%,41%); stroke:none;" transform="translate(0,928) scale(1,-1)">Compute expands evaluation; evidence constrains justification.</text>
			<text x="18" y="451" style="font-family: Helvetica; font-size: 8.1px;fill: rgb(29%,33%,41%); stroke:none;" transform="translate(0,902) scale(1,-1)">Future FTQC expands executable dynamics; it does not supply evidence.</text>
			<text x="30" y="430" style="font-family: Helvetica-Bold; font-size: 9.2px;fill: rgb(7%,13%,21%); stroke:none;" transform="translate(0,860) scale(1,-1)">Bottom-up candidate generation</text>
			<text x="340" y="430" style="font-family: Helvetica-Bold; font-size: 9.2px;fill: rgb(18%,41%,30%); stroke:none;" transform="translate(0,860) scale(1,-1)">Top-down reality constraints</text>
			<rect x="30" y="393" width="250" height="28" rx="5" ry="5" style="stroke: rgb(19%,35%,49%); stroke-linecap: butt; stroke-width: 1; fill: rgb(91%,94%,96%); fill-rule: evenodd;"/>
			<rect x="37" y="398" width="18" height="18" rx="4" ry="4" style="stroke: rgb(7%,13%,21%); stroke-linecap: butt; stroke-width: 1; fill: rgb(7%,13%,21%); fill-rule: evenodd;"/>
			<text x="43.7204" y="403.4" style="font-family: Helvetica-Bold; font-size: 8.2px;fill: rgb(100%,100%,100%); stroke:none;" transform="translate(0,806) scale(1,-1)">1</text>
			<text x="64" y="404.2" style="font-family: Helvetica-Bold; font-size: 8.2px;fill: rgb(7%,13%,21%); stroke:none;" transform="translate(0,808) scale(1,-1)">Pre-particle executable rules</text>
			<rect x="30" y="357" width="250" height="28" rx="5" ry="5" style="stroke: rgb(19%,35%,49%); stroke-linecap: butt; stroke-width: 1; fill: rgb(91%,94%,96%); fill-rule: evenodd;"/>
			<rect x="37" y="362" width="18" height="18" rx="4" ry="4" style="stroke: rgb(7%,13%,21%); stroke-linecap: butt; stroke-width: 1; fill: rgb(7%,13%,21%); fill-rule: evenodd;"/>
			<text x="43.7204" y="367.4" style="font-family: Helvetica-Bold; font-size: 8.2px;fill: rgb(100%,100%,100%); stroke:none;" transform="translate(0,734) scale(1,-1)">2</text>
			<text x="64" y="368.2" style="font-family: Helvetica-Bold; font-size: 8.2px;fill: rgb(7%,13%,21%); stroke:none;" transform="translate(0,736) scale(1,-1)">Persistent excitations</text>
			<rect x="30" y="321" width="250" height="28" rx="5" ry="5" style="stroke: rgb(19%,35%,49%); stroke-linecap: butt; stroke-width: 1; fill: rgb(91%,94%,96%); fill-rule: evenodd;"/>
			<rect x="37" y="326" width="18" height="18" rx="4" ry="4" style="stroke: rgb(7%,13%,21%); stroke-linecap: butt; stroke-width: 1; fill: rgb(7%,13%,21%); fill-rule: evenodd;"/>
			<text x="43.7204" y="331.4" style="font-family: Helvetica-Bold; font-size: 8.2px;fill: rgb(100%,100%,100%); stroke:none;" transform="translate(0,662) scale(1,-1)">3</text>
			<text x="64" y="332.2" style="font-family: Helvetica-Bold; font-size: 8.2px;fill: rgb(7%,13%,21%); stroke:none;" transform="translate(0,664) scale(1,-1)">Particle-like signatures</text>
			<rect x="30" y="285" width="250" height="28" rx="5" ry="5" style="stroke: rgb(19%,35%,49%); stroke-linecap: butt; stroke-width: 1; fill: rgb(91%,94%,96%); fill-rule: evenodd;"/>
			<rect x="37" y="290" width="18" height="18" rx="4" ry="4" style="stroke: rgb(7%,13%,21%); stroke-linecap: butt; stroke-width: 1; fill: rgb(7%,13%,21%); fill-rule: evenodd;"/>
			<text x="43.7204" y="295.4" style="font-family: Helvetica-Bold; font-size: 8.2px;fill: rgb(100%,100%,100%); stroke:none;" transform="translate(0,590) scale(1,-1)">4</text>
			<text x="64" y="296.2" style="font-family: Helvetica-Bold; font-size: 8.2px;fill: rgb(7%,13%,21%); stroke:none;" transform="translate(0,592) scale(1,-1)">Atom-like states</text>
			<rect x="30" y="249" width="250" height="28" rx="5" ry="5" style="stroke: rgb(19%,35%,49%); stroke-linecap: butt; stroke-width: 1; fill: rgb(91%,94%,96%); fill-rule: evenodd;"/>
			<rect x="37" y="254" width="18" height="18" rx="4" ry="4" style="stroke: rgb(7%,13%,21%); stroke-linecap: butt; stroke-width: 1; fill: rgb(7%,13%,21%); fill-rule: evenodd;"/>
			<text x="43.7204" y="259.4" style="font-family: Helvetica-Bold; font-size: 8.2px;fill: rgb(100%,100%,100%); stroke:none;" transform="translate(0,518) scale(1,-1)">5</text>
			<text x="64" y="260.2" style="font-family: Helvetica-Bold; font-size: 8.2px;fill: rgb(7%,13%,21%); stroke:none;" transform="translate(0,520) scale(1,-1)">Molecule-like systems</text>
			<rect x="30" y="213" width="250" height="28" rx="5" ry="5" style="stroke: rgb(19%,35%,49%); stroke-linecap: butt; stroke-width: 1; fill: rgb(91%,94%,96%); fill-rule: evenodd;"/>
			<rect x="37" y="218" width="18" height="18" rx="4" ry="4" style="stroke: rgb(7%,13%,21%); stroke-linecap: butt; stroke-width: 1; fill: rgb(7%,13%,21%); fill-rule: evenodd;"/>
			<text x="43.7204" y="223.4" style="font-family: Helvetica-Bold; font-size: 8.2px;fill: rgb(100%,100%,100%); stroke:none;" transform="translate(0,446) scale(1,-1)">6</text>
			<text x="64" y="224.2" style="font-family: Helvetica-Bold; font-size: 8.2px;fill: rgb(7%,13%,21%); stroke:none;" transform="translate(0,448) scale(1,-1)">Biochemical dynamics</text>
			<rect x="30" y="177" width="250" height="28" rx="5" ry="5" style="stroke: rgb(18%,41%,30%); stroke-linecap: butt; stroke-width: 1; fill: rgb(92%,96%,94%); fill-rule: evenodd;"/>
			<rect x="37" y="182" width="18" height="18" rx="4" ry="4" style="stroke: rgb(7%,13%,21%); stroke-linecap: butt; stroke-width: 1; fill: rgb(7%,13%,21%); fill-rule: evenodd;"/>
			<text x="43.7204" y="187.4" style="font-family: Helvetica-Bold; font-size: 8.2px;fill: rgb(100%,100%,100%); stroke:none;" transform="translate(0,374) scale(1,-1)">7</text>
			<text x="64" y="188.2" style="font-family: Helvetica-Bold; font-size: 8.2px;fill: rgb(7%,13%,21%); stroke:none;" transform="translate(0,376) scale(1,-1)">Cellular microdynamics</text>
			<rect x="30" y="141" width="250" height="28" rx="5" ry="5" style="stroke: rgb(18%,41%,30%); stroke-linecap: butt; stroke-width: 1; fill: rgb(92%,96%,94%); fill-rule: evenodd;"/>
			<rect x="37" y="146" width="18" height="18" rx="4" ry="4" style="stroke: rgb(7%,13%,21%); stroke-linecap: butt; stroke-width: 1; fill: rgb(7%,13%,21%); fill-rule: evenodd;"/>
			<text x="43.7204" y="151.4" style="font-family: Helvetica-Bold; font-size: 8.2px;fill: rgb(100%,100%,100%); stroke:none;" transform="translate(0,302) scale(1,-1)">8</text>
			<text x="64" y="152.2" style="font-family: Helvetica-Bold; font-size: 8.2px;fill: rgb(7%,13%,21%); stroke:none;" transform="translate(0,304) scale(1,-1)">Aging: drift and resilience loss</text>
			<rect x="30" y="105" width="250" height="28" rx="5" ry="5" style="stroke: rgb(18%,41%,30%); stroke-linecap: butt; stroke-width: 1; fill: rgb(92%,96%,94%); fill-rule: evenodd;"/>
			<rect x="37" y="110" width="18" height="18" rx="4" ry="4" style="stroke: rgb(7%,13%,21%); stroke-linecap: butt; stroke-width: 1; fill: rgb(7%,13%,21%); fill-rule: evenodd;"/>
			<text x="43.7204" y="115.4" style="font-family: Helvetica-Bold; font-size: 8.2px;fill: rgb(100%,100%,100%); stroke:none;" transform="translate(0,230) scale(1,-1)">9</text>
			<text x="64" y="116.2" style="font-family: Helvetica-Bold; font-size: 8.2px;fill: rgb(7%,13%,21%); stroke:none;" transform="translate(0,232) scale(1,-1)">Safety-constrained rejuvenation</text>
			<path d="M 155,393 L 155,385 Z" style="stroke: rgb(7%,13%,21%); stroke-linecap: butt; stroke-width: 1.4;"/>
			<path d="M 155 385 L 159.5 392 L 150.5 392 L 155 385 " style="stroke: rgb(7%,13%,21%); stroke-linecap: butt; stroke-width: 1; fill: none; fill-rule: evenodd;"/>
			<path d="M 155,357 L 155,349 Z" style="stroke: rgb(7%,13%,21%); stroke-linecap: butt; stroke-width: 1.4;"/>
			<path d="M 155 349 L 159.5 356 L 150.5 356 L 155 349 " style="stroke: rgb(7%,13%,21%); stroke-linecap: butt; stroke-width: 1; fill: none; fill-rule: evenodd;"/>
			<path d="M 155,321 L 155,313 Z" style="stroke: rgb(7%,13%,21%); stroke-linecap: butt; stroke-width: 1.4;"/>
			<path d="M 155 313 L 159.5 320 L 150.5 320 L 155 313 " style="stroke: rgb(7%,13%,21%); stroke-linecap: butt; stroke-width: 1; fill: none; fill-rule: evenodd;"/>
			<path d="M 155,285 L 155,277 Z" style="stroke: rgb(7%,13%,21%); stroke-linecap: butt; stroke-width: 1.4;"/>
			<path d="M 155 277 L 159.5 284 L 150.5 284 L 155 277 " style="stroke: rgb(7%,13%,21%); stroke-linecap: butt; stroke-width: 1; fill: none; fill-rule: evenodd;"/>
			<path d="M 155,249 L 155,241 Z" style="stroke: rgb(7%,13%,21%); stroke-linecap: butt; stroke-width: 1.4;"/>
			<path d="M 155 241 L 159.5 248 L 150.5 248 L 155 241 " style="stroke: rgb(7%,13%,21%); stroke-linecap: butt; stroke-width: 1; fill: none; fill-rule: evenodd;"/>
			<path d="M 155,213 L 155,205 Z" style="stroke: rgb(7%,13%,21%); stroke-linecap: butt; stroke-width: 1.4;"/>
			<path d="M 155 205 L 159.5 212 L 150.5 212 L 155 205 " style="stroke: rgb(7%,13%,21%); stroke-linecap: butt; stroke-width: 1; fill: none; fill-rule: evenodd;"/>
			<path d="M 155,177 L 155,169 Z" style="stroke: rgb(7%,13%,21%); stroke-linecap: butt; stroke-width: 1.4;"/>
			<path d="M 155 169 L 159.5 176 L 150.5 176 L 155 169 " style="stroke: rgb(7%,13%,21%); stroke-linecap: butt; stroke-width: 1; fill: none; fill-rule: evenodd;"/>
			<path d="M 155,141 L 155,133 Z" style="stroke: rgb(7%,13%,21%); stroke-linecap: butt; stroke-width: 1.4;"/>
			<path d="M 155 133 L 159.5 140 L 150.5 140 L 155 133 " style="stroke: rgb(7%,13%,21%); stroke-linecap: butt; stroke-width: 1; fill: none; fill-rule: evenodd;"/>
			<rect x="340" y="316" width="175" height="38" rx="6" ry="6" style="stroke: rgb(18%,41%,30%); stroke-linecap: butt; stroke-width: 1; fill: rgb(92%,96%,94%); fill-rule: evenodd;"/>
			<text x="407.5533" y="337.01000000000005" style="font-family: Helvetica; font-size: 7.4px;fill: rgb(7%,13%,21%); stroke:none;" transform="translate(0,674) scale(1,-1)">Physics and</text>
			<text x="407.3461" y="327.81000000000006" style="font-family: Helvetica; font-size: 7.4px;fill: rgb(7%,13%,21%); stroke:none;" transform="translate(0,655) scale(1,-1)">particle data</text>
			<path d="M 340,335 L 280,335 Z" style="stroke: rgb(18%,41%,30%); stroke-linecap: butt; stroke-width: 1.4;"/>
			<path d="M 280 335 L 287 339.5 L 287 330.5 L 280 335 " style="stroke: rgb(18%,41%,30%); stroke-linecap: butt; stroke-width: 1; fill: none; fill-rule: evenodd;"/>
			<rect x="340" y="244" width="175" height="38" rx="6" ry="6" style="stroke: rgb(18%,41%,30%); stroke-linecap: butt; stroke-width: 1; fill: rgb(92%,96%,94%); fill-rule: evenodd;"/>
			<text x="395.8317" y="265.01000000000005" style="font-family: Helvetica; font-size: 7.4px;fill: rgb(7%,13%,21%); stroke:none;" transform="translate(0,530) scale(1,-1)">Atomic spectra and</text>
			<text x="396.0426" y="255.81000000000006" style="font-family: Helvetica; font-size: 7.4px;fill: rgb(7%,13%,21%); stroke:none;" transform="translate(0,511) scale(1,-1)">molecular structure</text>
			<path d="M 340,263 L 280,263 Z" style="stroke: rgb(18%,41%,30%); stroke-linecap: butt; stroke-width: 1.4;"/>
			<path d="M 280 263 L 287 267.5 L 287 258.5 L 280 263 " style="stroke: rgb(18%,41%,30%); stroke-linecap: butt; stroke-width: 1; fill: none; fill-rule: evenodd;"/>
			<rect x="340" y="172" width="175" height="38" rx="6" ry="6" style="stroke: rgb(18%,41%,30%); stroke-linecap: butt; stroke-width: 1; fill: rgb(92%,96%,94%); fill-rule: evenodd;"/>
			<text x="400.3568" y="193.01" style="font-family: Helvetica; font-size: 7.4px;fill: rgb(7%,13%,21%); stroke:none;" transform="translate(0,386) scale(1,-1)">Biochemical and</text>
			<text x="393.1603" y="183.81" style="font-family: Helvetica; font-size: 7.4px;fill: rgb(7%,13%,21%); stroke:none;" transform="translate(0,367) scale(1,-1)">cellular perturbations</text>
			<path d="M 340,191 L 280,191 Z" style="stroke: rgb(18%,41%,30%); stroke-linecap: butt; stroke-width: 1.4;"/>
			<path d="M 280 191 L 287 195.5 L 287 186.5 L 280 191 " style="stroke: rgb(18%,41%,30%); stroke-linecap: butt; stroke-width: 1; fill: none; fill-rule: evenodd;"/>
			<rect x="340" y="100" width="175" height="38" rx="6" ry="6" style="stroke: rgb(18%,41%,30%); stroke-linecap: butt; stroke-width: 1; fill: rgb(92%,96%,94%); fill-rule: evenodd;"/>
			<text x="390.2706" y="121.00999999999999" style="font-family: Helvetica; font-size: 7.4px;fill: rgb(7%,13%,21%); stroke:none;" transform="translate(0,242) scale(1,-1)">Longitudinal aging and</text>
			<text x="400.1459" y="111.80999999999999" style="font-family: Helvetica; font-size: 7.4px;fill: rgb(7%,13%,21%); stroke:none;" transform="translate(0,223) scale(1,-1)">intervention data</text>
			<path d="M 340,119 L 280,119 Z" style="stroke: rgb(18%,41%,30%); stroke-linecap: butt; stroke-width: 1.4;"/>
			<path d="M 280 119 L 287 123.5 L 287 114.5 L 280 119 " style="stroke: rgb(18%,41%,30%); stroke-linecap: butt; stroke-width: 1; fill: none; fill-rule: evenodd;"/>
			<rect x="30" y="55" width="485" height="45" rx="6" ry="6" style="stroke: rgb(18%,41%,30%); stroke-linecap: butt; stroke-width: 1; fill: rgb(92%,96%,94%); fill-rule: evenodd;"/>
			<text x="213.9479" y="82" style="font-family: Helvetica-Bold; font-size: 8.2px;fill: rgb(18%,41%,30%); stroke:none;" transform="translate(0,164) scale(1,-1)">No premature coarse-graining</text>
			<text x="172.3521" y="66" style="font-family: Helvetica; font-size: 7.4px;fill: rgb(29%,33%,41%); stroke:none;" transform="translate(0,132) scale(1,-1)">Sufficient fidelity preserves upper observables and decisions.</text>
			<rect x="30" y="9" width="485" height="35" rx="6" ry="6" style="stroke: rgb(60%,38%,0%); stroke-linecap: butt; stroke-width: 1; fill: rgb(100%,96%,86%); fill-rule: evenodd;"/>
			<text x="183.157" y="29" style="font-family: Helvetica-Bold; font-size: 8.1px;fill: rgb(60%,38%,0%); stroke:none;" transform="translate(0,58) scale(1,-1)">Local All: complete finite-grammar accounting</text>
			<text x="158.50150000000002" y="16" style="font-family: Helvetica; font-size: 7.0px;fill: rgb(29%,33%,41%); stroke:none;" transform="translate(0,32) scale(1,-1)">Ambiguity | class inadequacy | indeterminate | current test: 256 ECA rules</text>
		</g>
	</g>
</svg>
